<svg width="24" height="25" viewBox="0 0 24 25" fill="none" xmlns="http://www.w3.org/2000/svg">
<path fill-rule="evenodd" clip-rule="evenodd" d="M4.74831 15.32C5.65491 14.4134 6.88452 13.9041 8.16664 13.9041H15.8333C17.1154 13.9041 18.345 14.4134 19.2516 15.32C20.1582 16.2266 20.6676 17.4562 20.6676 18.7383V20.655C20.6676 21.2078 20.2194 21.6559 19.6666 21.6559C19.1139 21.6559 18.6657 21.2078 18.6657 20.655V18.7383C18.6657 17.9871 18.3673 17.2667 17.8361 16.7355C17.3049 16.2043 16.5845 15.9059 15.8333 15.9059H8.16664C7.41544 15.9059 6.695 16.2043 6.16382 16.7355C5.63264 17.2667 5.33422 17.9871 5.33422 18.7383V20.655C5.33422 21.2078 4.8861 21.6559 4.33331 21.6559C3.78052 21.6559 3.3324 21.2078 3.3324 20.655V18.7383C3.3324 17.4562 3.84172 16.2266 4.74831 15.32Z" fill="black"/>
<path fill-rule="evenodd" clip-rule="evenodd" d="M12 4.40588C10.4357 4.40588 9.16756 5.674 9.16756 7.2383C9.16756 8.8026 10.4357 10.0707 12 10.0707C13.5643 10.0707 14.8324 8.8026 14.8324 7.2383C14.8324 5.674 13.5643 4.40588 12 4.40588ZM7.16573 7.2383C7.16573 4.56842 9.3301 2.40405 12 2.40405C14.6699 2.40405 16.8342 4.56842 16.8342 7.2383C16.8342 9.90818 14.6699 12.0725 12 12.0725C9.3301 12.0725 7.16573 9.90818 7.16573 7.2383Z" fill="black"/>
</svg>
